<svg width="21" height="22" viewBox="0 0 21 22" fill="none" xmlns="http://www.w3.org/2000/svg">
<path d="M11.2303 21.6232L9.72265 20.0933L11.2303 18.5634L12.7379 20.0933L11.2303 21.6232ZM7.76273 20.0933L6.70738 19.0224L9.6724 16.0135L10.7277 17.0844L7.76273 20.0933ZM14.2456 18.5634L12.7379 17.0335L14.2456 15.5035L15.7532 17.0335L14.2456 18.5634ZM5.19975 18.5634L3.69212 17.0335L5.19975 15.5035L6.70738 17.0335L5.19975 18.5634ZM6.20484 14.4836C4.68045 14.4836 3.37786 13.9352 2.29705 12.8384C1.21625 11.7416 0.67618 10.4201 0.67685 8.87383C0.67685 7.46289 1.13752 6.23045 2.05885 5.1765C2.98018 4.12254 4.11928 3.50207 5.47615 3.31508C6.0122 2.34613 6.74524 1.58524 7.67529 1.03243C8.60533 0.479612 9.62281 0.203545 10.7277 0.204225C12.2354 0.204225 13.5463 0.693122 14.6607 1.67092C15.775 2.64871 16.449 3.86824 16.6829 5.32949C17.8387 5.43148 18.8103 5.91596 19.5977 6.78292C20.385 7.64988 20.7786 8.68683 20.7786 9.89378C20.7786 11.1687 20.3391 12.2526 19.46 13.1454C18.5808 14.0382 17.5128 14.4842 16.2557 14.4836H6.20484Z" fill="white"/>
</svg>
